<mxfile host="app.diagrams.net" agent="Mozilla/5.0 (Macintosh; Intel Mac OS X 10_15_7) AppleWebKit/537.36 (KHTML, like Gecko) Chrome/135.0.0.0 Safari/537.36" version="26.2.13">
  <diagram name="第 1 页" id="jR2ubAqOkFF0x-hPTilo">
    <mxGraphModel dx="2054" dy="3112" grid="1" gridSize="10" guides="1" tooltips="1" connect="1" arrows="1" fold="1" page="1" pageScale="1" pageWidth="2000" pageHeight="1000" math="0" shadow="0">
      <root>
        <mxCell id="0" />
        <mxCell id="1" parent="0" />
        <mxCell id="4e2aQfmRuNtqzHRbyNyb-3" style="edgeStyle=orthogonalEdgeStyle;rounded=0;orthogonalLoop=1;jettySize=auto;html=1;exitX=0.5;exitY=1;exitDx=0;exitDy=0;entryX=0.5;entryY=0;entryDx=0;entryDy=0;" edge="1" parent="1" source="4e2aQfmRuNtqzHRbyNyb-1" target="4e2aQfmRuNtqzHRbyNyb-2">
          <mxGeometry relative="1" as="geometry" />
        </mxCell>
        <mxCell id="4e2aQfmRuNtqzHRbyNyb-1" value="开始" style="rounded=1;whiteSpace=wrap;html=1;fillColor=#cdeb8b;strokeColor=#36393d;" vertex="1" parent="1">
          <mxGeometry x="430" y="-1430" width="120" height="40" as="geometry" />
        </mxCell>
        <mxCell id="4e2aQfmRuNtqzHRbyNyb-5" style="edgeStyle=orthogonalEdgeStyle;rounded=0;orthogonalLoop=1;jettySize=auto;html=1;exitX=0.5;exitY=1;exitDx=0;exitDy=0;" edge="1" parent="1" source="4e2aQfmRuNtqzHRbyNyb-2" target="4e2aQfmRuNtqzHRbyNyb-4">
          <mxGeometry relative="1" as="geometry" />
        </mxCell>
        <mxCell id="4e2aQfmRuNtqzHRbyNyb-2" value="查询任务申请单" style="rounded=0;whiteSpace=wrap;html=1;" vertex="1" parent="1">
          <mxGeometry x="430" y="-1350" width="120" height="40" as="geometry" />
        </mxCell>
        <mxCell id="4e2aQfmRuNtqzHRbyNyb-7" style="edgeStyle=orthogonalEdgeStyle;rounded=0;orthogonalLoop=1;jettySize=auto;html=1;exitX=0.5;exitY=1;exitDx=0;exitDy=0;entryX=0.5;entryY=0;entryDx=0;entryDy=0;" edge="1" parent="1" source="4e2aQfmRuNtqzHRbyNyb-4" target="4e2aQfmRuNtqzHRbyNyb-6">
          <mxGeometry relative="1" as="geometry" />
        </mxCell>
        <mxCell id="4e2aQfmRuNtqzHRbyNyb-4" value="产品列表" style="rounded=0;whiteSpace=wrap;html=1;" vertex="1" parent="1">
          <mxGeometry x="430" y="-1270" width="120" height="40" as="geometry" />
        </mxCell>
        <mxCell id="4e2aQfmRuNtqzHRbyNyb-15" style="edgeStyle=orthogonalEdgeStyle;rounded=0;orthogonalLoop=1;jettySize=auto;html=1;exitX=0.5;exitY=1;exitDx=0;exitDy=0;" edge="1" parent="1" source="4e2aQfmRuNtqzHRbyNyb-6" target="4e2aQfmRuNtqzHRbyNyb-14">
          <mxGeometry relative="1" as="geometry" />
        </mxCell>
        <mxCell id="4e2aQfmRuNtqzHRbyNyb-6" value="结果文件格式校验" style="rounded=0;whiteSpace=wrap;html=1;" vertex="1" parent="1">
          <mxGeometry x="430" y="-1190" width="120" height="40" as="geometry" />
        </mxCell>
        <mxCell id="4e2aQfmRuNtqzHRbyNyb-10" value="校验逻辑" style="swimlane;fontStyle=0;childLayout=stackLayout;horizontal=1;startSize=30;horizontalStack=0;resizeParent=1;resizeParentMax=0;resizeLast=0;collapsible=1;marginBottom=0;whiteSpace=wrap;html=1;fillColor=#ffff88;strokeColor=#36393d;" vertex="1" parent="1">
          <mxGeometry x="600" y="-1220" width="140" height="100" as="geometry" />
        </mxCell>
        <mxCell id="4e2aQfmRuNtqzHRbyNyb-12" value="&lt;span style=&quot;background-color: transparent; color: light-dark(rgb(0, 0, 0), rgb(255, 255, 255));&quot;&gt;结果表头要与外发样本表头一致&lt;/span&gt;&lt;br&gt;&lt;span style=&quot;background-color: transparent; color: light-dark(rgb(0, 0, 0), rgb(255, 255, 255));&quot;&gt;文件必须包含产品关联的特征&lt;/span&gt;" style="text;strokeColor=none;fillColor=none;align=left;verticalAlign=middle;spacingLeft=4;spacingRight=4;overflow=hidden;points=[[0,0.5],[1,0.5]];portConstraint=eastwest;rotatable=0;whiteSpace=wrap;html=1;" vertex="1" parent="4e2aQfmRuNtqzHRbyNyb-10">
          <mxGeometry y="30" width="140" height="70" as="geometry" />
        </mxCell>
        <mxCell id="4e2aQfmRuNtqzHRbyNyb-17" style="edgeStyle=orthogonalEdgeStyle;rounded=0;orthogonalLoop=1;jettySize=auto;html=1;exitX=0.5;exitY=1;exitDx=0;exitDy=0;" edge="1" parent="1" source="4e2aQfmRuNtqzHRbyNyb-14" target="4e2aQfmRuNtqzHRbyNyb-16">
          <mxGeometry relative="1" as="geometry" />
        </mxCell>
        <mxCell id="4e2aQfmRuNtqzHRbyNyb-31" style="edgeStyle=orthogonalEdgeStyle;rounded=0;orthogonalLoop=1;jettySize=auto;html=1;exitX=0;exitY=0.5;exitDx=0;exitDy=0;entryX=0;entryY=0.25;entryDx=0;entryDy=0;dashed=1;" edge="1" parent="1" source="4e2aQfmRuNtqzHRbyNyb-14" target="4e2aQfmRuNtqzHRbyNyb-4">
          <mxGeometry relative="1" as="geometry">
            <Array as="points">
              <mxPoint x="350" y="-1090" />
              <mxPoint x="350" y="-1260" />
            </Array>
          </mxGeometry>
        </mxCell>
        <mxCell id="4e2aQfmRuNtqzHRbyNyb-39" style="edgeStyle=orthogonalEdgeStyle;rounded=0;orthogonalLoop=1;jettySize=auto;html=1;exitX=0.5;exitY=1;exitDx=0;exitDy=0;entryX=0;entryY=0.5;entryDx=0;entryDy=0;" edge="1" parent="1" source="4e2aQfmRuNtqzHRbyNyb-14" target="4e2aQfmRuNtqzHRbyNyb-18">
          <mxGeometry relative="1" as="geometry">
            <mxPoint x="620" y="-1000" as="targetPoint" />
          </mxGeometry>
        </mxCell>
        <mxCell id="4e2aQfmRuNtqzHRbyNyb-14" value="持久化" style="rounded=0;whiteSpace=wrap;html=1;" vertex="1" parent="1">
          <mxGeometry x="430" y="-1110" width="120" height="40" as="geometry" />
        </mxCell>
        <mxCell id="4e2aQfmRuNtqzHRbyNyb-16" value="结束" style="rounded=1;whiteSpace=wrap;html=1;fillColor=#cdeb8b;strokeColor=#36393d;" vertex="1" parent="1">
          <mxGeometry x="430" y="-920" width="120" height="40" as="geometry" />
        </mxCell>
        <mxCell id="4e2aQfmRuNtqzHRbyNyb-20" style="edgeStyle=orthogonalEdgeStyle;rounded=0;orthogonalLoop=1;jettySize=auto;html=1;exitX=0.5;exitY=1;exitDx=0;exitDy=0;" edge="1" parent="1" source="4e2aQfmRuNtqzHRbyNyb-18" target="4e2aQfmRuNtqzHRbyNyb-19">
          <mxGeometry relative="1" as="geometry" />
        </mxCell>
        <mxCell id="4e2aQfmRuNtqzHRbyNyb-18" value="异步埋坑" style="rounded=0;whiteSpace=wrap;html=1;" vertex="1" parent="1">
          <mxGeometry x="630" y="-1030" width="120" height="40" as="geometry" />
        </mxCell>
        <mxCell id="4e2aQfmRuNtqzHRbyNyb-22" style="edgeStyle=orthogonalEdgeStyle;rounded=0;orthogonalLoop=1;jettySize=auto;html=1;exitX=0.5;exitY=1;exitDx=0;exitDy=0;" edge="1" parent="1" source="4e2aQfmRuNtqzHRbyNyb-19" target="4e2aQfmRuNtqzHRbyNyb-21">
          <mxGeometry relative="1" as="geometry" />
        </mxCell>
        <mxCell id="4e2aQfmRuNtqzHRbyNyb-19" value="产品列表" style="rounded=0;whiteSpace=wrap;html=1;" vertex="1" parent="1">
          <mxGeometry x="630" y="-950" width="120" height="40" as="geometry" />
        </mxCell>
        <mxCell id="4e2aQfmRuNtqzHRbyNyb-24" style="edgeStyle=orthogonalEdgeStyle;rounded=0;orthogonalLoop=1;jettySize=auto;html=1;exitX=0.5;exitY=1;exitDx=0;exitDy=0;" edge="1" parent="1" source="4e2aQfmRuNtqzHRbyNyb-21" target="4e2aQfmRuNtqzHRbyNyb-23">
          <mxGeometry relative="1" as="geometry" />
        </mxCell>
        <mxCell id="4e2aQfmRuNtqzHRbyNyb-21" value="包含埋坑样本" style="rhombus;whiteSpace=wrap;html=1;" vertex="1" parent="1">
          <mxGeometry x="630" y="-870" width="120" height="60" as="geometry" />
        </mxCell>
        <mxCell id="4e2aQfmRuNtqzHRbyNyb-26" style="edgeStyle=orthogonalEdgeStyle;rounded=0;orthogonalLoop=1;jettySize=auto;html=1;exitX=0.5;exitY=1;exitDx=0;exitDy=0;" edge="1" parent="1" source="4e2aQfmRuNtqzHRbyNyb-23">
          <mxGeometry relative="1" as="geometry">
            <mxPoint x="690" y="-670" as="targetPoint" />
          </mxGeometry>
        </mxCell>
        <mxCell id="4e2aQfmRuNtqzHRbyNyb-23" value="结果文件上传到hive" style="rounded=0;whiteSpace=wrap;html=1;" vertex="1" parent="1">
          <mxGeometry x="630" y="-750" width="120" height="40" as="geometry" />
        </mxCell>
        <mxCell id="4e2aQfmRuNtqzHRbyNyb-29" style="edgeStyle=orthogonalEdgeStyle;rounded=0;orthogonalLoop=1;jettySize=auto;html=1;exitX=0.5;exitY=1;exitDx=0;exitDy=0;entryX=0.5;entryY=0;entryDx=0;entryDy=0;" edge="1" parent="1" source="4e2aQfmRuNtqzHRbyNyb-27" target="4e2aQfmRuNtqzHRbyNyb-28">
          <mxGeometry relative="1" as="geometry" />
        </mxCell>
        <mxCell id="4e2aQfmRuNtqzHRbyNyb-27" value="特征列表" style="rounded=0;whiteSpace=wrap;html=1;" vertex="1" parent="1">
          <mxGeometry x="630" y="-670" width="120" height="40" as="geometry" />
        </mxCell>
        <mxCell id="4e2aQfmRuNtqzHRbyNyb-30" style="edgeStyle=orthogonalEdgeStyle;rounded=0;orthogonalLoop=1;jettySize=auto;html=1;exitX=1;exitY=0.5;exitDx=0;exitDy=0;entryX=1;entryY=0.5;entryDx=0;entryDy=0;dashed=1;" edge="1" parent="1" source="4e2aQfmRuNtqzHRbyNyb-28" target="4e2aQfmRuNtqzHRbyNyb-27">
          <mxGeometry relative="1" as="geometry">
            <Array as="points">
              <mxPoint x="800" y="-570" />
              <mxPoint x="800" y="-650" />
            </Array>
          </mxGeometry>
        </mxCell>
        <mxCell id="4e2aQfmRuNtqzHRbyNyb-33" style="edgeStyle=orthogonalEdgeStyle;rounded=0;orthogonalLoop=1;jettySize=auto;html=1;exitX=0.5;exitY=1;exitDx=0;exitDy=0;entryX=0.5;entryY=0;entryDx=0;entryDy=0;" edge="1" parent="1" source="4e2aQfmRuNtqzHRbyNyb-28" target="4e2aQfmRuNtqzHRbyNyb-32">
          <mxGeometry relative="1" as="geometry" />
        </mxCell>
        <mxCell id="4e2aQfmRuNtqzHRbyNyb-28" value="执行埋坑分析SQL" style="rounded=0;whiteSpace=wrap;html=1;" vertex="1" parent="1">
          <mxGeometry x="630" y="-590" width="120" height="40" as="geometry" />
        </mxCell>
        <mxCell id="4e2aQfmRuNtqzHRbyNyb-37" style="edgeStyle=orthogonalEdgeStyle;rounded=0;orthogonalLoop=1;jettySize=auto;html=1;exitX=0.5;exitY=1;exitDx=0;exitDy=0;entryX=0.5;entryY=0;entryDx=0;entryDy=0;" edge="1" parent="1" source="4e2aQfmRuNtqzHRbyNyb-32" target="4e2aQfmRuNtqzHRbyNyb-36">
          <mxGeometry relative="1" as="geometry" />
        </mxCell>
        <mxCell id="4e2aQfmRuNtqzHRbyNyb-32" value="历史回溯结果落表" style="rounded=0;whiteSpace=wrap;html=1;" vertex="1" parent="1">
          <mxGeometry x="630" y="-510" width="120" height="40" as="geometry" />
        </mxCell>
        <mxCell id="4e2aQfmRuNtqzHRbyNyb-34" style="edgeStyle=orthogonalEdgeStyle;rounded=0;orthogonalLoop=1;jettySize=auto;html=1;exitX=0.5;exitY=1;exitDx=0;exitDy=0;" edge="1" parent="1" source="4e2aQfmRuNtqzHRbyNyb-32" target="4e2aQfmRuNtqzHRbyNyb-32">
          <mxGeometry relative="1" as="geometry" />
        </mxCell>
        <mxCell id="4e2aQfmRuNtqzHRbyNyb-35" style="edgeStyle=orthogonalEdgeStyle;rounded=0;orthogonalLoop=1;jettySize=auto;html=1;exitX=0.5;exitY=1;exitDx=0;exitDy=0;" edge="1" parent="1">
          <mxGeometry relative="1" as="geometry">
            <mxPoint x="700" y="-460" as="sourcePoint" />
            <mxPoint x="700" y="-460" as="targetPoint" />
          </mxGeometry>
        </mxCell>
        <mxCell id="4e2aQfmRuNtqzHRbyNyb-38" style="edgeStyle=orthogonalEdgeStyle;rounded=0;orthogonalLoop=1;jettySize=auto;html=1;exitX=1;exitY=0.5;exitDx=0;exitDy=0;entryX=1;entryY=0.5;entryDx=0;entryDy=0;dashed=1;" edge="1" parent="1" source="4e2aQfmRuNtqzHRbyNyb-36" target="4e2aQfmRuNtqzHRbyNyb-19">
          <mxGeometry relative="1" as="geometry">
            <Array as="points">
              <mxPoint x="850" y="-410" />
              <mxPoint x="850" y="-930" />
            </Array>
          </mxGeometry>
        </mxCell>
        <mxCell id="4e2aQfmRuNtqzHRbyNyb-40" style="edgeStyle=orthogonalEdgeStyle;rounded=0;orthogonalLoop=1;jettySize=auto;html=1;exitX=0.5;exitY=1;exitDx=0;exitDy=0;entryX=0.5;entryY=1;entryDx=0;entryDy=0;" edge="1" parent="1" source="4e2aQfmRuNtqzHRbyNyb-36" target="4e2aQfmRuNtqzHRbyNyb-16">
          <mxGeometry relative="1" as="geometry">
            <Array as="points">
              <mxPoint x="690" y="-340" />
              <mxPoint x="490" y="-340" />
            </Array>
          </mxGeometry>
        </mxCell>
        <mxCell id="4e2aQfmRuNtqzHRbyNyb-36" value="发送状态变更通知" style="rounded=0;whiteSpace=wrap;html=1;" vertex="1" parent="1">
          <mxGeometry x="630" y="-430" width="120" height="40" as="geometry" />
        </mxCell>
        <mxCell id="4e2aQfmRuNtqzHRbyNyb-41" value="埋坑分析" style="text;html=1;align=center;verticalAlign=middle;resizable=0;points=[];autosize=1;strokeColor=none;fillColor=none;" vertex="1" parent="1">
          <mxGeometry x="300" y="-1515" width="70" height="30" as="geometry" />
        </mxCell>
        <mxCell id="4e2aQfmRuNtqzHRbyNyb-42" value="撞库拼接" style="text;html=1;align=center;verticalAlign=middle;resizable=0;points=[];autosize=1;strokeColor=none;fillColor=none;" vertex="1" parent="1">
          <mxGeometry x="1235" y="-1462" width="70" height="30" as="geometry" />
        </mxCell>
        <mxCell id="4e2aQfmRuNtqzHRbyNyb-43" style="edgeStyle=orthogonalEdgeStyle;rounded=0;orthogonalLoop=1;jettySize=auto;html=1;exitX=0.5;exitY=1;exitDx=0;exitDy=0;entryX=0.5;entryY=0;entryDx=0;entryDy=0;" edge="1" parent="1" source="4e2aQfmRuNtqzHRbyNyb-44" target="4e2aQfmRuNtqzHRbyNyb-45">
          <mxGeometry relative="1" as="geometry" />
        </mxCell>
        <mxCell id="4e2aQfmRuNtqzHRbyNyb-44" value="开始" style="rounded=1;whiteSpace=wrap;html=1;fillColor=#cdeb8b;strokeColor=#36393d;" vertex="1" parent="1">
          <mxGeometry x="1220" y="-1400" width="120" height="40" as="geometry" />
        </mxCell>
        <mxCell id="4e2aQfmRuNtqzHRbyNyb-51" style="edgeStyle=orthogonalEdgeStyle;rounded=0;orthogonalLoop=1;jettySize=auto;html=1;exitX=0.5;exitY=1;exitDx=0;exitDy=0;entryX=0.5;entryY=0;entryDx=0;entryDy=0;" edge="1" parent="1" source="4e2aQfmRuNtqzHRbyNyb-45" target="4e2aQfmRuNtqzHRbyNyb-50">
          <mxGeometry relative="1" as="geometry" />
        </mxCell>
        <mxCell id="4e2aQfmRuNtqzHRbyNyb-45" value="查询任务申请单" style="rounded=0;whiteSpace=wrap;html=1;" vertex="1" parent="1">
          <mxGeometry x="1220" y="-1320" width="120" height="40" as="geometry" />
        </mxCell>
        <mxCell id="4e2aQfmRuNtqzHRbyNyb-53" style="edgeStyle=orthogonalEdgeStyle;rounded=0;orthogonalLoop=1;jettySize=auto;html=1;exitX=0.5;exitY=1;exitDx=0;exitDy=0;entryX=0.5;entryY=0;entryDx=0;entryDy=0;" edge="1" parent="1" source="4e2aQfmRuNtqzHRbyNyb-47" target="4e2aQfmRuNtqzHRbyNyb-48">
          <mxGeometry relative="1" as="geometry" />
        </mxCell>
        <mxCell id="4e2aQfmRuNtqzHRbyNyb-47" value="子任务列表" style="rounded=0;whiteSpace=wrap;html=1;" vertex="1" parent="1">
          <mxGeometry x="1220" y="-1140" width="120" height="40" as="geometry" />
        </mxCell>
        <mxCell id="4e2aQfmRuNtqzHRbyNyb-54" style="edgeStyle=orthogonalEdgeStyle;rounded=0;orthogonalLoop=1;jettySize=auto;html=1;exitX=0.5;exitY=1;exitDx=0;exitDy=0;" edge="1" parent="1" source="4e2aQfmRuNtqzHRbyNyb-48" target="4e2aQfmRuNtqzHRbyNyb-49">
          <mxGeometry relative="1" as="geometry" />
        </mxCell>
        <mxCell id="4e2aQfmRuNtqzHRbyNyb-55" style="edgeStyle=orthogonalEdgeStyle;rounded=0;orthogonalLoop=1;jettySize=auto;html=1;exitX=1;exitY=0.5;exitDx=0;exitDy=0;entryX=1;entryY=0.5;entryDx=0;entryDy=0;dashed=1;" edge="1" parent="1" source="4e2aQfmRuNtqzHRbyNyb-48" target="4e2aQfmRuNtqzHRbyNyb-47">
          <mxGeometry relative="1" as="geometry">
            <Array as="points">
              <mxPoint x="1400" y="-1030" />
              <mxPoint x="1400" y="-1120" />
            </Array>
          </mxGeometry>
        </mxCell>
        <mxCell id="4e2aQfmRuNtqzHRbyNyb-48" value="启动拼接" style="rounded=0;whiteSpace=wrap;html=1;" vertex="1" parent="1">
          <mxGeometry x="1220" y="-1050" width="120" height="40" as="geometry" />
        </mxCell>
        <mxCell id="4e2aQfmRuNtqzHRbyNyb-49" value="结束" style="rounded=1;whiteSpace=wrap;html=1;fillColor=#cdeb8b;strokeColor=#36393d;" vertex="1" parent="1">
          <mxGeometry x="1220" y="-960" width="120" height="40" as="geometry" />
        </mxCell>
        <mxCell id="4e2aQfmRuNtqzHRbyNyb-52" style="edgeStyle=orthogonalEdgeStyle;rounded=0;orthogonalLoop=1;jettySize=auto;html=1;exitX=0.5;exitY=1;exitDx=0;exitDy=0;" edge="1" parent="1" source="4e2aQfmRuNtqzHRbyNyb-50" target="4e2aQfmRuNtqzHRbyNyb-47">
          <mxGeometry relative="1" as="geometry" />
        </mxCell>
        <mxCell id="4e2aQfmRuNtqzHRbyNyb-50" value="&lt;div style=&quot;background-color:#1e1f22;color:#bcbec4&quot;&gt;&lt;pre style=&quot;font-family:&#39;JetBrains Mono&#39;,monospace;font-size:10.5pt;&quot;&gt;&lt;span style=&quot;color:#c77dbb;&quot;&gt;matchTaskId&lt;/span&gt;&lt;/pre&gt;&lt;/div&gt;" style="rounded=0;whiteSpace=wrap;html=1;" vertex="1" parent="1">
          <mxGeometry x="1220" y="-1230" width="120" height="40" as="geometry" />
        </mxCell>
        <mxCell id="4e2aQfmRuNtqzHRbyNyb-56" value="特征列表" style="ellipse;shape=cloud;whiteSpace=wrap;html=1;fillColor=#ffcccc;strokeColor=#36393d;" vertex="1" parent="1">
          <mxGeometry x="560" y="-1290" width="110" height="60" as="geometry" />
        </mxCell>
        <mxCell id="4e2aQfmRuNtqzHRbyNyb-57" value="特征列表" style="ellipse;shape=cloud;whiteSpace=wrap;html=1;fillColor=#ffcccc;strokeColor=#36393d;" vertex="1" parent="1">
          <mxGeometry x="860" y="-960" width="110" height="60" as="geometry" />
        </mxCell>
        <mxCell id="4e2aQfmRuNtqzHRbyNyb-58" value="合并" style="ellipse;shape=cloud;whiteSpace=wrap;html=1;fillColor=#ffcccc;strokeColor=#36393d;" vertex="1" parent="1">
          <mxGeometry x="710" y="-370" width="110" height="60" as="geometry" />
        </mxCell>
      </root>
    </mxGraphModel>
  </diagram>
</mxfile>
